HIERARCHY
ROOT root
{
	OFFSET 0.000000 0.000000 0.000000
	CHANNELS 6 Xposition Yposition Zposition Zrotation Yrotation Xrotation
	JOINT lhip
	{
		OFFSET 0.058581 -0.082280 -0.017664
		CHANNELS 3 Zrotation Yrotation Xrotation
		JOINT lknee
		{
			OFFSET 0.043451 -0.386469 0.008037
			CHANNELS 3 Zrotation Yrotation Xrotation
			JOINT lankle
			{
				OFFSET -0.014790 -0.426874 -0.037428
				CHANNELS 3 Zrotation Yrotation Xrotation
				JOINT ltoe
				{
					OFFSET 0.041054 -0.060286 0.122042
					CHANNELS 3 Zrotation Yrotation Xrotation
					End Site
					{
						OFFSET 0.000000 0.000000 0.000000
					}
				}
			}
		}
	}
	JOINT rhip
	{
		OFFSET -0.060310 -0.090513 -0.013543
		CHANNELS 3 Zrotation Yrotation Xrotation
		JOINT rknee
		{
			OFFSET -0.043257 -0.383688 -0.004843
			CHANNELS 3 Zrotation Yrotation Xrotation
			JOINT rankle
			{
				OFFSET 0.019056 -0.420046 -0.034562
				CHANNELS 3 Zrotation Yrotation Xrotation
				JOINT rtoe
				{
					OFFSET -0.034840 -0.062106 0.130323
					CHANNELS 3 Zrotation Yrotation Xrotation
					End Site
					{
						OFFSET 0.000000 0.000000 0.000000
					}
				}
			}
		}
	}
	JOINT lowerback
	{
		OFFSET 0.004439 0.124404 -0.038385
		CHANNELS 3 Zrotation Yrotation Xrotation
		JOINT upperback
		{
			OFFSET 0.004488 0.137956 0.026820
			CHANNELS 3 Zrotation Yrotation Xrotation
			JOINT chest
			{
				OFFSET -0.002265 0.056032 0.002855
				CHANNELS 3 Zrotation Yrotation Xrotation
				JOINT lowerneck
				{
					OFFSET -0.013390 0.211636 -0.033468
					CHANNELS 3 Zrotation Yrotation Xrotation
					JOINT upperneck
					{
						OFFSET 0.010113 0.088937 0.050410
						CHANNELS 3 Zrotation Yrotation Xrotation
						End Site
						{
							OFFSET 0.000000 0.000000 0.000000
						}
					}
				}
				JOINT lclavicle
				{
					OFFSET 0.071702 0.114000 -0.018898
					CHANNELS 3 Zrotation Yrotation Xrotation
					JOINT lshoulder
					{
						OFFSET 0.122921 0.045205 -0.019046
						CHANNELS 3 Zrotation Yrotation Xrotation
						JOINT lelbow
						{
							OFFSET 0.255332 -0.015649 -0.022946
							CHANNELS 3 Zrotation Yrotation Xrotation
							JOINT lwrist
							{
								OFFSET 0.265709 0.012698 -0.007375
								CHANNELS 3 Zrotation Yrotation Xrotation
								End Site
								{
									OFFSET 0.000000 0.000000 0.000000
								}
							}
						}
					}
				}
				JOINT rclavicle
				{
					OFFSET -0.082954 0.112472 -0.023707
					CHANNELS 3 Zrotation Yrotation Xrotation
					JOINT rshoulder
					{
						OFFSET -0.113228 0.046853 -0.008472
						CHANNELS 3 Zrotation Yrotation Xrotation
						JOINT relbow
						{
							OFFSET -0.260127 -0.014369 -0.031269
							CHANNELS 3 Zrotation Yrotation Xrotation
							JOINT rwrist
							{
								OFFSET -0.269108 0.006794 -0.006027
								CHANNELS 3 Zrotation Yrotation Xrotation
								End Site
								{
									OFFSET 0.000000 0.000000 0.000000
								}
							}
						}
					}
				}
			}
		}
	}
}
MOTION
Frames: 11
Frame Time: 0.033333
-0.193302 0.236781 1.880058 -100.889417 4.185124 88.724678 -0.255301 13.040711 -0.798190 0.214398 8.801451 11.794785 -0.477477 7.273347 -13.657732 0.000000 -0.000000 0.000000 3.681259 -0.194748 -8.526874 -7.425244 0.069894 21.795370 4.801731 7.246635 -9.522219 0.000000 -0.000000 0.000000 -1.514796 -1.445679 12.883346 -1.677889 -2.254140 -1.654670 -0.737016 3.344978 -11.454702 -15.495501 15.541343 31.965188 10.655681 -1.916581 -14.526960 -18.494018 -2.394508 12.234691 -53.062215 -4.233334 0.669273 12.943740 -76.629573 14.691888 -4.463055 -8.571795 -11.232254 22.043557 5.283176 15.999993 54.331068 18.704716 -0.031377 2.071266 72.452268 25.559965 -9.005579 8.062340 -22.001271 
-0.198072 0.242230 1.881876 -103.209157 4.102759 87.874401 0.270943 13.996718 0.989848 0.060229 9.671596 10.843308 -1.166962 7.642112 -13.196442 0.000000 -0.000000 0.000000 4.107580 0.656245 -7.771754 -7.572019 0.684213 21.952717 4.966395 7.541391 -9.022252 0.000000 -0.000000 0.000000 -1.471878 -1.777396 12.856204 -1.870240 -1.447493 -2.029284 -0.876483 3.751207 -11.132810 -16.263881 18.072683 31.269120 10.244107 -3.023762 -13.107137 -17.722121 -1.517542 12.065147 -53.352011 -3.328406 0.339878 12.873615 -75.835545 14.547657 -4.241424 -8.943372 -11.383962 22.610667 5.103448 15.678368 55.618071 19.697118 1.066877 3.839537 70.642831 27.585179 -11.148109 7.484248 -21.312959 
-0.203259 0.246198 1.884084 -104.717894 4.125585 87.380413 0.526897 14.355372 2.156069 0.344624 10.208612 10.486261 -1.930628 7.945448 -12.799790 0.000000 -0.000000 0.000000 4.368311 0.835294 -7.456047 -7.825392 0.915017 22.459785 5.344476 8.751677 -8.590822 0.000000 -0.000000 0.000000 -0.953533 -1.992103 12.259072 -1.832644 -1.303064 -1.921252 -1.201668 3.784997 -10.973115 -16.921622 20.834554 30.964041 9.553429 -4.274318 -12.258837 -17.132572 -0.821496 12.102244 -53.964534 -2.331340 0.050639 14.167474 -74.833036 13.054180 -4.287758 -9.608323 -11.515449 23.094431 4.644784 14.989457 57.055362 20.507356 2.293052 6.503380 68.733775 30.406908 -12.394697 7.095974 -20.553383 
-0.208380 0.247829 1.886556 -104.892258 4.280289 86.655511 0.605691 13.571935 3.257357 1.021086 10.110644 10.582317 -2.468605 8.297016 -12.371125 0.000000 -0.000000 0.000000 4.142343 -0.090528 -6.428668 -7.316082 1.298267 22.269632 5.644362 10.340250 -7.896423 0.000000 -0.000000 0.000000 0.275222 -2.105042 12.507136 -1.703020 -2.327032 -2.375617 -1.642968 3.530367 -10.503270 -18.371806 23.164852 29.870109 8.885642 -5.206715 -10.834776 -16.337243 -0.521052 12.461270 -55.201302 -1.246788 -0.183183 15.176078 -73.950074 12.064110 -3.396241 -10.450555 -11.096060 22.985074 4.956038 14.534851 58.643013 20.687575 3.318554 7.308342 67.561543 31.641295 -11.937621 7.504807 -19.962363 
-0.213601 0.251120 1.887889 -105.801592 4.315822 86.310228 0.764740 13.319782 3.967278 1.331155 10.022115 10.649490 -2.714993 8.904468 -11.800986 0.000000 -0.000000 0.000000 4.024902 -0.367720 -5.867650 -6.830206 2.473390 22.158142 5.915822 11.088101 -7.461505 0.000000 -0.000000 0.000000 0.925246 -2.340903 11.881409 -1.373836 -2.842225 -2.387247 -2.006547 3.428812 -9.932546 -20.008544 25.516226 28.193374 8.121229 -5.918299 -9.388718 -15.322357 0.086674 12.833170 -56.274792 -0.108497 -0.049141 13.058292 -73.333552 14.475733 0.338542 -10.515208 -11.951889 23.357742 4.697325 13.958191 59.950187 21.482447 4.499975 8.932604 66.143174 34.249499 -12.745147 7.848677 -18.326463 
-0.218016 0.254660 1.888829 -106.952289 4.178468 85.949537 0.745957 13.269237 4.716586 1.555004 9.729112 10.663379 -3.185336 9.546283 -11.537959 0.000000 -0.000000 0.000000 3.842560 -0.365082 -5.453518 -6.519386 3.440400 22.246684 6.437046 11.646221 -7.353431 0.000000 -0.000000 0.000000 1.249254 -2.684609 11.523250 -1.178358 -3.312366 -2.504285 -2.258415 3.315942 -9.344488 -21.747986 27.808799 25.801277 7.397386 -6.407556 -7.957179 -14.411513 0.844493 13.114067 -57.152924 1.284781 0.091099 10.384186 -73.061237 16.870621 4.772053 -10.285140 -13.240615 23.866708 4.617364 13.359016 60.934600 22.427811 5.791817 11.107111 64.576138 37.136078 -13.970315 7.791700 -16.828663 
-0.222832 0.260129 1.889992 -109.026305 3.918065 85.301061 0.957783 14.245808 6.130591 1.469495 9.457731 10.239292 -3.333851 10.220843 -11.358363 0.000000 -0.000000 0.000000 3.872858 -0.328518 -4.615940 -6.157575 5.226700 22.060191 6.502013 11.668059 -7.215547 0.000000 -0.000000 0.000000 0.984404 -2.811722 11.260617 -1.099886 -3.209554 -2.591074 -2.216566 3.321669 -8.737671 -23.585399 29.702824 22.991795 6.781052 -6.292033 -6.142954 -13.598055 1.332619 13.384027 -57.701433 2.963623 0.331773 6.859315 -72.653945 20.149455 10.138264 -10.048851 -14.840227 24.452832 4.740847 12.934535 61.984707 23.268730 6.952867 12.140505 62.818679 37.896811 -14.073607 7.819384 -15.423777 
-0.225521 0.264849 1.889654 -110.571397 4.039666 85.310203 1.353285 14.533456 6.576107 1.373528 9.556154 9.924007 -3.346967 10.873955 -11.017128 0.000000 -0.000000 0.000000 4.284282 -0.062216 -4.797463 -5.809557 6.407412 22.311394 6.422114 11.549501 -7.067832 0.000000 -0.000000 0.000000 1.239124 -3.157704 10.850512 -0.966212 -3.168833 -2.819815 -2.295293 3.286573 -8.138311 -25.741045 31.087571 19.556289 6.305850 -6.067502 -4.410363 -13.061657 1.697384 13.607430 -58.383258 4.087915 0.532166 4.878138 -72.002164 21.407583 14.593759 -9.649424 -16.464594 24.784713 4.836709 12.385586 62.670951 23.963535 8.039321 13.632113 61.376528 39.621166 -14.746044 8.126223 -14.306670 
-0.227164 0.269890 1.889651 -112.308654 4.118206 85.517359 1.550975 14.534197 6.709931 1.369208 10.065151 9.770221 -3.322335 11.676783 -10.790909 0.000000 -0.000000 0.000000 4.785109 -0.083579 -5.304457 -5.548818 7.989059 22.588976 6.424815 11.476966 -6.893981 0.000000 -0.000000 0.000000 1.342343 -3.175328 10.401752 -0.866542 -3.256278 -3.146123 -2.293984 3.334028 -7.698476 -27.949036 32.192745 16.018640 6.077796 -5.556245 -2.615029 -12.600048 1.980527 13.684291 -59.088254 5.141287 0.519021 3.336984 -71.075662 21.738920 19.225882 -9.152949 -17.576007 25.030374 5.081601 12.006484 63.266969 24.471336 9.107804 15.144513 60.198290 41.076168 -15.840511 8.046019 -12.635792 
-0.228944 0.274032 1.890048 -113.669814 4.167499 85.449887 1.661407 14.331436 7.137996 1.466526 10.513789 9.607277 -3.501633 12.351402 -10.822661 0.000000 -0.000000 0.000000 4.950796 0.082633 -5.167990 -5.123706 8.910307 22.470484 6.437961 11.540347 -6.766820 0.000000 -0.000000 0.000000 1.544473 -3.312709 10.410521 -0.955972 -3.386922 -3.425022 -2.291633 3.203264 -7.445117 -30.018000 33.007096 12.568082 5.940511 -4.953096 -0.963276 -12.291661 1.870798 13.975062 -59.970412 6.154211 0.141984 4.378635 -70.200310 19.370718 21.687974 -9.086203 -18.719821 25.097582 5.733959 11.943726 63.871320 24.813623 9.980717 15.825766 59.326297 41.931264 -16.622000 8.336480 -11.170636 
-0.229841 0.277999 1.890297 -115.147613 4.354837 85.256888 2.120872 14.303302 7.429213 1.308490 10.718057 9.988674 -3.662674 13.089106 -11.138342 0.000000 -0.000000 0.000000 5.341031 0.480334 -4.952210 -4.747113 10.008828 22.429979 6.466736 11.347572 -6.643145 0.000000 -0.000000 0.000000 1.749982 -3.594093 10.780401 -0.995507 -3.317297 -3.767626 -2.235945 3.101000 -7.193735 -32.260643 33.341980 8.513558 5.769392 -4.082759 1.010666 -12.079765 2.066199 13.941030 -60.464783 6.984608 -0.353145 4.567057 -69.512265 18.199095 24.499139 -8.988147 -19.872448 25.192538 6.321561 11.665686 64.374390 25.170043 10.865091 16.416595 58.475124 42.549380 -16.746054 8.554361 -9.902930 
